<?xml version="1.0" encoding="iso-8859-1"?>
<!-- Uploaded to: SVG Repo, www.svgrepo.com, Generator: SVG Repo Mixer Tools -->
<svg height="800px" width="800px" version="1.1" id="Capa_1" xmlns="http://www.w3.org/2000/svg" xmlns:xlink="http://www.w3.org/1999/xlink" 
	 viewBox="0 0 25.452 25.452" xml:space="preserve">
<g>
	<g id="c120_triangle">
		<path style="fill:#030104;" d="M4.471,24.929v-2.004l12.409-9.788c0.122-0.101,0.195-0.251,0.195-0.411
			c0-0.156-0.073-0.31-0.195-0.409L4.471,2.526V0.522c0-0.2,0.115-0.384,0.293-0.469c0.18-0.087,0.396-0.066,0.552,0.061
			l15.47,12.202c0.123,0.1,0.195,0.253,0.195,0.409c0,0.16-0.072,0.311-0.195,0.411L5.316,25.34
			c-0.155,0.125-0.372,0.147-0.552,0.061C4.586,25.315,4.471,25.13,4.471,24.929z"/>
	</g>
</g>
</svg>